# xmcd CD database file
#
# Track frame offsets:
#	150
#	11744
#	25276
#	38485
#	48694
#	61112
#	73841
#	84753
#	95201
#	104142
#	118424
#	132230
#
# Disc length: 1914 seconds
#
# Revision: 0
# Processed by: cddbd v1.5.2PL0 Copyright (c) Steve Scherf et al.
# Submitted via: CDex 1.70beta2
#
DISCID=aa07780c
DTITLE=Ray Charles - The Genius of Soul - CD1
DYEAR=2008
DGENRE=Jazz
TTITLE0=C. C. Rider
TTITLE1=Baby Let Me Hold Your Hand
TTITLE2=Alone In The City
TTITLE3=Sitting On Top Of The World
TTITLE4=Rockin' Chair Blues
TTITLE5=Can Anyone Ask For More
TTITLE6=A Sentimental Blues
TTITLE7=I Wonder Who's Kissing Her Now
TTITLE8=All To Mayself Alone
TTITLE9=Kiss Me Babay
TTITLE10=I'm Going Down To The River
TTITLE11=Ray Charles Blues
EXTD=YEAR: 2008
EXTT0=
EXTT1=
EXTT2=
EXTT3=
EXTT4=
EXTT5=
EXTT6=
EXTT7=
EXTT8=
EXTT9=
EXTT10=
EXTT11=
PLAYORDER=
